<svg version="1.1" id="Layer_1" xmlns="http://www.w3.org/2000/svg" xmlns:xlink="http://www.w3.org/1999/xlink" x="0px" y="0px"
	 width="100%" viewBox="0 0 500 500" enable-background="new 0 0 500 500" xml:space="preserve">
<path fill="#42B95F" opacity="1.000000" stroke="none" 
	d="
M0.999998,396.000000 
	C1.000000,393.299988 1.000000,390.599976 1.160008,387.229309 
	C1.213343,385.705780 1.106670,384.852905 0.999998,384.000000 
	C1.000000,294.979095 1.000000,205.958206 1.099895,116.356644 
	C1.338307,115.455162 1.271710,115.196503 1.000000,115.000000 
	C1.000000,112.629440 1.000000,110.258888 1.396824,107.597839 
	C2.129750,106.961548 2.720987,106.645218 2.764813,106.265671 
	C4.009966,95.482559 8.042657,85.592636 11.822927,75.514626 
	C16.950024,61.846027 25.047703,50.248287 34.813793,39.819744 
	C44.718960,29.242689 56.209999,20.768600 69.551270,14.469668 
	C81.333260,8.906932 93.166031,4.382853 106.125679,2.908223 
	C106.813911,2.829911 107.378075,1.661133 108.000000,0.999999 
	C202.020889,1.000000 296.041779,1.000000 390.375977,1.399274 
	C391.361816,2.187433 391.990509,2.775158 392.713684,2.934595 
	C400.322052,4.612026 408.074982,5.775807 415.536743,7.945521 
	C429.287598,11.943982 441.540924,18.808464 452.802460,27.800014 
	C461.676483,34.885281 470.256470,42.202427 476.734253,51.492798 
	C487.353821,66.723297 494.837433,83.405746 498.134033,101.838654 
	C498.461792,103.671333 500.015350,105.284790 501.000000,107.000000 
	C501.000000,204.020889 501.000000,301.041779 500.606201,398.407257 
	C498.354034,403.780029 496.408630,408.778259 494.663971,413.845642 
	C493.195465,418.110901 492.581451,422.788544 490.491821,426.696930 
	C486.236755,434.655640 481.464935,442.365509 476.503052,449.912964 
	C467.297241,463.915771 454.317169,473.976318 440.559052,483.076141 
	C427.707458,491.576416 413.519867,496.688934 398.302734,499.048523 
	C397.454681,499.180023 396.763947,500.326111 396.000000,501.000000 
	C299.312439,501.000000 202.624878,501.000000 105.637695,500.615021 
	C97.969788,497.823395 90.515343,495.647644 83.259521,492.939728 
	C77.057907,490.625214 70.899376,488.050262 65.052086,484.964630 
	C55.802849,480.083771 47.134880,474.368622 40.286999,466.150421 
	C36.557831,461.674988 31.715097,458.122620 28.024162,453.621307 
	C21.944082,446.206421 17.293255,437.966339 13.167207,429.162109 
	C8.416178,419.024261 4.790854,408.818726 2.922061,397.868011 
	C2.800675,397.156738 1.664255,396.618652 0.999998,396.000000 
M311.011658,168.992096 
	C311.011658,168.992096 311.002777,168.922791 311.348999,169.326355 
	C311.627258,169.545319 311.905487,169.764297 312.646851,170.182068 
	C313.039154,170.490158 313.431458,170.798264 314.259308,171.450165 
	C314.583466,171.625931 314.907654,171.801697 315.614319,172.137283 
	C315.856964,172.309036 315.989532,172.543121 316.339050,173.259384 
	C316.586456,173.513397 316.833832,173.767410 316.990173,173.988541 
	C316.990173,173.988541 317.022949,173.897430 317.243530,174.553589 
	C318.537476,175.339813 319.831390,176.126022 321.058716,176.937180 
	C321.058716,176.937180 321.087311,176.872040 321.143188,177.597046 
	C322.469879,178.701080 323.796539,179.805115 325.073547,180.966049 
	C325.073547,180.966049 325.016693,180.916336 325.315063,181.326508 
	C325.570709,181.546188 325.826385,181.765869 326.012848,181.987366 
	C326.012848,181.987366 326.014221,181.918137 326.315979,182.325180 
	C326.571259,182.544952 326.826569,182.764725 327.013306,182.986099 
	C327.013306,182.986099 327.016296,182.917603 327.311005,183.329330 
	C327.567017,183.547546 327.823029,183.765762 328.014435,183.985657 
	C328.014435,183.985657 328.026520,183.922134 328.257263,184.365158 
	C328.459808,184.630478 328.662384,184.895798 329.212067,185.732773 
	C336.298309,192.880417 341.242737,201.439392 345.008728,210.642349 
	C348.770355,219.834595 352.147949,229.221329 352.130737,239.358643 
	C352.112610,250.053223 353.236938,260.980164 351.440155,271.387451 
	C348.725098,287.113831 341.983276,301.617920 331.924011,314.258423 
	C322.043427,326.674377 310.379150,337.171783 295.496521,343.047302 
	C285.251740,347.091827 274.575226,350.336334 263.817139,352.676117 
	C257.410034,354.069580 250.255737,354.118317 243.814545,352.852417 
	C227.693985,349.684174 216.718216,339.779968 212.509796,323.772949 
	C208.110138,307.038635 213.201462,292.920593 226.606400,281.934357 
	C233.728775,276.097107 242.675949,275.005463 251.201889,273.030121 
	C257.695129,271.525696 263.166565,267.778931 265.490875,262.300171 
	C272.624329,245.485718 265.688538,229.980988 245.333282,229.340424 
	C225.403870,228.713242 208.153641,237.390091 193.692825,250.922791 
	C180.381943,263.379364 172.084412,278.934387 168.234634,296.687073 
	C164.686264,313.049835 166.147018,329.124969 172.354004,344.746918 
	C178.497681,360.209534 188.190811,373.000854 201.499680,382.889496 
	C212.620941,391.152649 225.066742,396.528076 239.723984,398.511688 
	C248.150772,398.402679 256.577576,398.293671 265.827271,398.042786 
	C276.876556,395.372833 287.973785,392.884918 298.964630,389.992920 
	C318.427338,384.871765 334.851288,374.101471 349.441589,360.759857 
	C357.350220,353.528107 364.014679,344.869415 370.816376,336.509399 
	C380.472595,324.640869 386.848236,310.904205 391.111237,296.345428 
	C394.115692,286.084808 395.864899,275.456665 398.496307,264.234375 
	C398.394073,255.149826 398.291870,246.065262 398.016327,236.177505 
	C397.287354,231.666534 396.795380,227.101883 395.787506,222.654099 
	C391.877472,205.398926 386.028015,188.916290 376.922302,173.594650 
	C361.457825,147.573639 339.745880,128.823914 312.031494,116.995148 
	C295.991302,110.149025 279.536224,104.478027 261.859436,104.021378 
	C250.836761,103.736633 239.553757,102.635773 228.816467,104.445625 
	C205.901474,108.308128 184.879227,117.314430 166.033279,131.385208 
	C155.497421,139.251495 145.560989,147.474411 136.901199,157.476364 
	C121.371590,175.412903 111.380608,195.831665 106.527351,219.364578 
	C106.342613,219.603546 106.169403,219.850601 105.950882,220.532013 
	C105.950882,220.532013 105.814339,220.939789 105.454422,221.601196 
	C104.997223,225.742844 104.540024,229.884506 104.003052,234.888199 
	C103.934097,236.902985 103.865143,238.917770 103.358368,241.282822 
	C100.566078,248.429031 102.514565,260.174316 107.029579,263.998474 
	C107.029579,263.998474 107.007767,263.904877 107.243736,264.325989 
	C107.414085,264.601959 107.614120,264.854431 108.065407,265.574463 
	C108.379890,266.003418 108.694374,266.432404 109.334389,267.273590 
	C109.580711,267.522400 109.827034,267.771240 109.979767,268.018127 
	C109.979767,268.018127 109.981621,267.924530 110.324097,268.311798 
	C110.575638,268.547272 110.827179,268.782745 110.992828,269.006531 
	C110.992828,269.006531 111.004395,268.920654 111.319504,269.492767 
	C112.241753,269.982025 113.163994,270.471313 114.018219,270.974030 
	C114.018219,270.974030 114.007767,270.905518 114.371284,271.488220 
	C115.611557,271.987305 116.851830,272.486359 118.562401,273.034210 
	C118.562401,273.034210 119.014763,273.171783 119.777069,273.468964 
	C124.056587,273.597015 128.444626,274.348511 132.576645,273.629211 
	C135.236160,273.166260 137.519501,270.542236 139.969177,268.960175 
	C139.969177,268.960175 139.895828,268.957794 140.627304,268.872711 
	C144.516022,268.156250 145.669724,265.359070 145.937012,261.962708 
	C145.937012,261.962708 145.863983,261.959717 146.555283,261.701202 
	C150.282913,257.991394 149.995758,253.521225 149.025131,248.323593 
	C149.078369,247.933960 149.131607,247.544312 149.638535,246.816589 
	C149.748917,245.808945 149.859314,244.801285 150.011139,243.210938 
	C150.062561,242.826019 150.113998,242.441086 150.498840,241.377533 
	C150.982315,237.188843 151.465775,233.000168 152.007263,228.171127 
	C152.037918,227.529556 152.068573,226.887985 152.666122,225.824356 
	C155.442810,218.463882 158.219498,211.103424 161.017960,203.397171 
	C161.017960,203.397171 161.142685,203.073929 161.447189,202.693954 
	C161.639847,202.432968 161.818604,202.162781 162.043564,201.465363 
	C162.043564,201.465363 162.164764,201.060791 162.775742,200.789001 
	C163.500275,199.494003 164.224823,198.199005 164.949478,196.967484 
	C164.949478,196.967484 164.890121,196.944992 165.492096,196.903412 
	C167.460190,196.568451 168.757172,195.910400 167.023682,193.254074 
	C167.275314,192.837936 167.526962,192.421814 168.475266,191.854004 
	C173.466522,186.898926 178.521561,182.005524 183.409622,176.950653 
	C184.849228,175.461929 185.816360,173.516312 187.139435,171.384018 
	C187.312057,171.132019 187.551071,171.004562 188.432312,170.816406 
	C188.952988,170.517151 189.473663,170.217896 190.246262,169.336288 
	C191.434250,168.551910 192.622238,167.767532 194.336243,167.154526 
	C195.212555,166.403214 196.088867,165.651886 196.977661,164.963257 
	C196.977661,164.963257 196.913971,164.957916 197.564468,164.873215 
	C198.364243,164.218689 199.164017,163.564163 199.912857,162.953308 
	C199.912857,162.953308 199.875717,162.897446 200.545197,162.877396 
	C201.354004,162.204346 202.162811,161.531296 202.965302,160.933334 
	C202.965302,160.933334 202.890228,160.926849 203.718109,160.965775 
	C207.942047,160.330933 212.435242,160.295242 214.979218,155.973770 
	C214.979218,155.973770 214.913086,155.970078 215.476105,155.834167 
	C216.009369,155.610336 216.542618,155.386520 217.483414,155.042175 
	C217.483414,155.042175 217.901917,154.968079 218.657394,154.970306 
	C220.166992,154.351440 221.676590,153.732590 223.520844,153.015823 
	C223.520844,153.015823 223.868652,152.991150 224.586304,152.971954 
	C225.737503,152.709412 226.888687,152.446869 228.439819,152.053268 
	C228.439819,152.053268 228.854965,151.984100 229.760330,151.996368 
	C237.509354,151.388489 245.258362,150.780594 253.663971,150.048477 
	C254.105377,150.091354 254.546783,150.134232 255.718384,150.461380 
	C260.165588,150.954254 264.612823,151.447113 269.835846,152.001862 
	C270.869110,152.064163 271.902405,152.126480 273.312805,152.487061 
	C273.574677,152.672302 273.847809,152.839066 274.581329,153.038803 
	C274.581329,153.038803 275.007568,153.189453 275.665070,153.465683 
	C276.837311,153.647171 278.009521,153.828644 279.554749,154.074921 
	C279.554749,154.074921 279.907013,154.213608 280.290741,154.731873 
	C282.549957,155.470001 284.809204,156.208145 287.657104,156.995682 
	C288.047638,157.039871 288.438141,157.084061 289.262604,157.675064 
	C290.554474,158.078766 291.846313,158.482452 293.078766,158.928177 
	C293.078766,158.928177 293.036865,158.868637 293.393890,159.463455 
	C294.653870,159.980499 295.913879,160.497559 297.547485,161.057144 
	C297.547485,161.057144 297.904938,161.173889 298.274139,161.484543 
	C298.531921,161.676971 298.803711,161.847015 299.007965,161.972809 
	C299.007965,161.972809 299.029907,161.891266 299.247681,162.569214 
	C301.554138,163.719101 303.860565,164.868988 306.645935,166.246017 
	C307.070801,166.555664 307.495667,166.865311 308.302521,167.480148 
	C308.567291,167.670486 308.843140,167.843124 309.493317,168.039078 
	C309.493317,168.039078 309.844849,168.139328 310.230042,168.459717 
	C310.497223,168.660278 310.780792,168.834167 311.011658,168.992096 
z"/>
<path fill="#000000" opacity="1.000000" stroke="none" 
	d="
M501.000000,106.531342 
	C500.015350,105.284790 498.461792,103.671333 498.134033,101.838654 
	C494.837433,83.405746 487.353821,66.723297 476.734253,51.492798 
	C470.256470,42.202427 461.676483,34.885281 452.802460,27.800014 
	C441.540924,18.808464 429.287598,11.943982 415.536743,7.945521 
	C408.074982,5.775807 400.322052,4.612026 392.713684,2.934595 
	C391.990509,2.775158 391.361816,2.187433 390.844604,1.399274 
	C427.592255,1.000000 464.184509,1.000000 501.000000,1.000000 
	C501.000000,36.020576 501.000000,71.041634 501.000000,106.531342 
z"/>
<path fill="#000000" opacity="1.000000" stroke="none" 
	d="
M0.999998,396.468658 
	C1.664255,396.618652 2.800675,397.156738 2.922061,397.868011 
	C4.790854,408.818726 8.416178,419.024261 13.167207,429.162109 
	C17.293255,437.966339 21.944082,446.206421 28.024162,453.621307 
	C31.715097,458.122620 36.557831,461.674988 40.286999,466.150421 
	C47.134880,474.368622 55.802849,480.083771 65.052086,484.964630 
	C70.899376,488.050262 77.057907,490.625214 83.259521,492.939728 
	C90.515343,495.647644 97.969788,497.823395 105.169037,500.615021 
	C70.406044,501.000000 35.812084,501.000000 1.000000,501.000000 
	C1.000000,466.312744 1.000000,431.625031 0.999998,396.468658 
z"/>
<path fill="#000000" opacity="1.000000" stroke="none" 
	d="
M396.468628,501.000000 
	C396.763947,500.326111 397.454681,499.180023 398.302734,499.048523 
	C413.519867,496.688934 427.707458,491.576416 440.559052,483.076141 
	C454.317169,473.976318 467.297241,463.915771 476.503052,449.912964 
	C481.464935,442.365509 486.236755,434.655640 490.491821,426.696930 
	C492.581451,422.788544 493.195465,418.110901 494.663971,413.845642 
	C496.408630,408.778259 498.354034,403.780029 500.606201,398.875916 
	C501.000000,432.928009 501.000000,466.855988 501.000000,501.000000 
	C466.312744,501.000000 431.625031,501.000000 396.468628,501.000000 
z"/>
<path fill="#000000" opacity="1.000000" stroke="none" 
	d="
M107.531342,0.999999 
	C107.378075,1.661133 106.813911,2.829911 106.125679,2.908223 
	C93.166031,4.382853 81.333260,8.906932 69.551270,14.469668 
	C56.209999,20.768600 44.718960,29.242689 34.813793,39.819744 
	C25.047703,50.248287 16.950024,61.846027 11.822927,75.514626 
	C8.042657,85.592636 4.009966,95.482559 2.764813,106.265671 
	C2.720987,106.645218 2.129750,106.961548 1.396824,107.153671 
	C1.000000,71.739372 1.000000,36.478752 1.000000,1.000000 
	C36.353928,1.000000 71.708305,1.000000 107.531342,0.999999 
z"/>
<path fill="#38A553" opacity="1.000000" stroke="none" 
	d="
M0.999998,384.375000 
	C1.106670,384.852905 1.213343,385.705780 1.160008,386.779358 
	C1.000000,386.250000 1.000000,385.500000 0.999998,384.375000 
z"/>
<path fill="#39A554" opacity="1.000000" stroke="none" 
	d="
M1.000000,115.250000 
	C1.271710,115.196503 1.338307,115.455162 1.099895,115.887985 
	C1.000000,116.000000 1.000000,115.500000 1.000000,115.250000 
z"/>
<path fill="#000000" opacity="1.000000" stroke="none" 
	d="
M238.958862,398.180450 
	C225.066742,396.528076 212.620941,391.152649 201.499680,382.889496 
	C188.190811,373.000854 178.497681,360.209534 172.354004,344.746918 
	C166.147018,329.124969 164.686264,313.049835 168.234634,296.687073 
	C172.084412,278.934387 180.381943,263.379364 193.692825,250.922791 
	C208.153641,237.390091 225.403870,228.713242 245.333282,229.340424 
	C265.688538,229.980988 272.624329,245.485718 265.490875,262.300171 
	C263.166565,267.778931 257.695129,271.525696 251.201889,273.030121 
	C242.675949,275.005463 233.728775,276.097107 226.606400,281.934357 
	C213.201462,292.920593 208.110138,307.038635 212.509796,323.772949 
	C216.718216,339.779968 227.693985,349.684174 243.814545,352.852417 
	C250.255737,354.118317 257.410034,354.069580 263.817139,352.676117 
	C274.575226,350.336334 285.251740,347.091827 295.496521,343.047302 
	C310.379150,337.171783 322.043427,326.674377 331.924011,314.258423 
	C341.983276,301.617920 348.725098,287.113831 351.440155,271.387451 
	C353.236938,260.980164 352.112610,250.053223 352.130737,239.358643 
	C352.147949,229.221329 348.770355,219.834595 345.008728,210.642349 
	C341.242737,201.439392 336.298309,192.880417 329.080566,185.149734 
	C328.641541,184.351852 328.334015,184.136993 328.026520,183.922134 
	C328.026520,183.922134 328.014435,183.985657 327.991669,183.707672 
	C327.651367,183.259003 327.333832,183.088303 327.016296,182.917603 
	C327.016296,182.917603 327.013306,182.986099 326.988831,182.709549 
	C326.647614,182.261383 326.330933,182.089752 326.014221,181.918137 
	C326.014221,181.918137 326.012848,181.987366 325.991516,181.709061 
	C325.652374,181.259277 325.334534,181.087799 325.016693,180.916321 
	C325.016693,180.916336 325.073547,180.966049 324.987610,180.632431 
	C323.630219,179.156555 322.358765,178.014297 321.087311,176.872040 
	C321.087311,176.872040 321.058716,176.937180 320.964905,176.609009 
	C319.588409,175.486359 318.305664,174.691895 317.022949,173.897430 
	C317.022949,173.897430 316.990173,173.988541 316.950470,173.736359 
	C316.611176,173.269318 316.311615,173.054428 316.012024,172.839554 
	C315.989532,172.543121 315.856964,172.309036 315.297119,171.761383 
	C314.594513,171.292450 314.209137,171.199402 313.823761,171.106354 
	C313.431458,170.798264 313.039154,170.490158 312.313293,169.813141 
	C311.654114,169.270401 311.328430,169.096603 311.002777,168.922791 
	C311.002777,168.922791 311.011658,168.992096 310.965149,168.699890 
	C310.560699,168.318237 310.202789,168.228775 309.844849,168.139328 
	C309.844849,168.139328 309.493317,168.039078 309.196777,167.767578 
	C308.573639,167.389053 308.247101,167.281998 307.920532,167.174942 
	C307.495667,166.865311 307.070801,166.555664 306.250427,165.804688 
	C303.579895,164.206009 301.304901,163.048630 299.029907,161.891266 
	C299.029907,161.891266 299.007965,161.972809 298.956909,161.717728 
	C298.572205,161.366394 298.238586,161.270142 297.904938,161.173889 
	C297.904938,161.173889 297.547485,161.057144 297.197662,160.724609 
	C295.577515,159.884262 294.307190,159.376450 293.036865,158.868637 
	C293.036865,158.868637 293.078766,158.928177 292.962769,158.575073 
	C291.507385,157.857391 290.168030,157.492828 288.828674,157.128250 
	C288.438141,157.084061 288.047638,157.039871 287.167542,156.664734 
	C284.421021,155.627045 282.164001,154.920319 279.907013,154.213608 
	C279.907013,154.213608 279.554749,154.074921 279.195862,153.688629 
	C277.560516,153.264725 276.284027,153.227097 275.007568,153.189453 
	C275.007568,153.189453 274.581329,153.038803 274.239014,152.769287 
	C273.576355,152.396103 273.256012,152.292450 272.935669,152.188782 
	C271.902405,152.126480 270.869110,152.064163 269.212616,151.653107 
	C264.055664,150.928604 259.521912,150.552856 254.988190,150.177109 
	C254.546783,150.134232 254.105377,150.091354 252.869217,150.045593 
	C244.334625,150.689850 236.594803,151.336975 228.854965,151.984100 
	C228.854965,151.984100 228.439819,152.053268 227.864456,152.045013 
	C226.148941,152.354889 225.008804,152.673019 223.868652,152.991150 
	C223.868652,152.991150 223.520844,153.015823 222.977158,152.977264 
	C220.922958,153.615173 219.412430,154.291626 217.901917,154.968079 
	C217.901917,154.968079 217.483414,155.042175 216.959808,155.035431 
	C215.928513,155.342484 215.420807,155.656281 214.913086,155.970093 
	C214.913086,155.970078 214.979218,155.973770 214.588745,155.975815 
	C210.428940,157.627518 206.659576,159.277191 202.890228,160.926849 
	C202.890228,160.926849 202.965302,160.933334 202.631790,160.927216 
	C201.490753,161.579865 200.683228,162.238647 199.875717,162.897446 
	C199.875717,162.897446 199.912857,162.953308 199.609207,162.971741 
	C198.508362,163.646072 197.711166,164.301987 196.913971,164.957916 
	C196.913971,164.957916 196.977661,164.963257 196.641022,164.984161 
	C195.473007,165.664429 194.641617,166.323792 193.810226,166.983154 
	C192.622238,167.767532 191.434250,168.551910 189.803375,169.675720 
	C188.859161,170.344009 188.357834,170.672836 187.856506,171.001663 
	C187.551071,171.004562 187.312057,171.132019 186.719025,171.658813 
	C182.326965,175.649612 178.177902,179.197678 174.445496,183.140198 
	C171.919785,185.808105 169.980301,189.031021 167.778610,192.005692 
	C167.526962,192.421814 167.275314,192.837936 166.693512,193.652527 
	C165.872269,195.015671 165.381195,195.980331 164.890121,196.944992 
	C164.890121,196.944992 164.949478,196.967484 164.637573,197.046982 
	C163.605377,198.437912 162.885071,199.749359 162.164764,201.060791 
	C162.164764,201.060791 162.043564,201.465363 161.756287,201.778183 
	C161.360229,202.418655 161.251465,202.746292 161.142700,203.073929 
	C161.142685,203.073929 161.017960,203.397171 160.667023,203.738220 
	C157.577148,211.468323 154.838196,218.857361 152.099243,226.246414 
	C152.068573,226.887985 152.037918,227.529556 151.619247,228.709198 
	C150.875961,233.516907 150.520691,237.786530 150.165421,242.056168 
	C150.113998,242.441086 150.062561,242.826019 149.643005,243.680420 
	C149.244858,245.151489 149.214859,246.153076 149.184845,247.154678 
	C149.131607,247.544312 149.078369,247.933960 148.661270,248.860687 
	C147.486267,253.585098 146.675125,257.772400 145.863983,261.959717 
	C145.863983,261.959717 145.937012,261.962708 145.615387,262.043640 
	C143.494461,264.402344 141.695145,266.680054 139.895828,268.957794 
	C139.895828,268.957794 139.969177,268.960175 139.600891,268.964050 
	C138.132797,269.643066 137.098938,270.736633 135.921921,270.922180 
	C130.307495,271.807220 124.654221,272.445648 119.014763,273.171783 
	C119.014763,273.171783 118.562401,273.034210 118.143921,272.720764 
	C116.486221,271.906738 115.246994,271.406128 114.007767,270.905518 
	C114.007767,270.905518 114.018219,270.974030 113.933647,270.654053 
	C112.900848,269.862915 111.952621,269.391785 111.004395,268.920654 
	C111.004395,268.920654 110.992828,269.006531 110.933731,268.758850 
	C110.576965,268.315643 110.279297,268.120087 109.981621,267.924530 
	C109.981621,267.924530 109.979767,268.018127 109.945877,267.750519 
	C109.610954,267.275726 109.309906,267.068542 109.008865,266.861359 
	C108.694374,266.432404 108.379890,266.003418 107.993866,265.043152 
	C107.617477,264.309509 107.312622,264.107208 107.007767,263.904877 
	C107.007767,263.904877 107.029579,263.998474 107.033508,263.602783 
	C106.019196,259.703644 104.598053,256.257294 104.091949,252.681396 
	C103.546608,248.828339 103.858360,244.853989 103.796188,240.932556 
	C103.865143,238.917770 103.934097,236.902985 104.372040,234.220413 
	C105.098808,229.348343 105.456573,225.144073 105.814339,220.939789 
	C105.814339,220.939789 105.950882,220.532013 106.215897,220.219574 
	C106.592461,219.610107 106.704002,219.313095 106.815536,219.016083 
	C111.380608,195.831665 121.371590,175.412903 136.901199,157.476364 
	C145.560989,147.474411 155.497421,139.251495 166.033279,131.385208 
	C184.879227,117.314430 205.901474,108.308128 228.816467,104.445625 
	C239.553757,102.635773 250.836761,103.736633 261.859436,104.021378 
	C279.536224,104.478027 295.991302,110.149025 312.031494,116.995148 
	C339.745880,128.823914 361.457825,147.573639 376.922302,173.594650 
	C386.028015,188.916290 391.877472,205.398926 395.787506,222.654099 
	C396.795380,227.101883 397.287354,231.666534 398.028442,237.046387 
	C398.085266,246.941055 398.129913,255.966843 398.174561,264.992645 
	C395.864899,275.456665 394.115692,286.084808 391.111237,296.345428 
	C386.848236,310.904205 380.472595,324.640869 370.816376,336.509399 
	C364.014679,344.869415 357.350220,353.528107 349.441589,360.759857 
	C334.851288,374.101471 318.427338,384.871765 298.964630,389.992920 
	C287.973785,392.884918 276.876556,395.372833 264.949432,398.044800 
	C255.700684,398.091400 247.329773,398.135925 238.958862,398.180450 
z"/>
<path fill="#55AC6D" opacity="1.000000" stroke="none" 
	d="
M168.126938,191.929840 
	C169.980301,189.031021 171.919785,185.808105 174.445496,183.140198 
	C178.177902,179.197678 182.326965,175.649612 186.649323,171.856842 
	C185.816360,173.516312 184.849228,175.461929 183.409622,176.950653 
	C178.521561,182.005524 173.466522,186.898926 168.126938,191.929840 
z"/>
<path fill="#55AC6D" opacity="1.000000" stroke="none" 
	d="
M152.382690,226.035385 
	C154.838196,218.857361 157.577148,211.468323 160.656143,203.911118 
	C158.219498,211.103424 155.442810,218.463882 152.382690,226.035385 
z"/>
<path fill="#55AC6D" opacity="1.000000" stroke="none" 
	d="
M103.577278,241.107697 
	C103.858360,244.853989 103.546608,248.828339 104.091949,252.681396 
	C104.598053,256.257294 106.019196,259.703644 107.080292,263.591797 
	C102.514565,260.174316 100.566078,248.429031 103.577278,241.107697 
z"/>
<path fill="#55AC6D" opacity="1.000000" stroke="none" 
	d="
M119.395920,273.320374 
	C124.654221,272.445648 130.307495,271.807220 135.921921,270.922180 
	C137.098938,270.736633 138.132797,269.643066 139.602020,268.927368 
	C137.519501,270.542236 135.236160,273.166260 132.576645,273.629211 
	C128.444626,274.348511 124.056587,273.597015 119.395920,273.320374 
z"/>
<path fill="#69AA78" opacity="1.000000" stroke="none" 
	d="
M398.335449,264.613525 
	C398.129913,255.966843 398.085266,246.941055 398.115112,237.447983 
	C398.291870,246.065262 398.394073,255.149826 398.335449,264.613525 
z"/>
<path fill="#55AC6D" opacity="1.000000" stroke="none" 
	d="
M229.307648,151.990234 
	C236.594803,151.336975 244.334625,150.689850 252.540924,150.107712 
	C245.258362,150.780594 237.509354,151.388489 229.307648,151.990234 
z"/>
<path fill="#69AA77" opacity="1.000000" stroke="none" 
	d="
M239.341431,398.346069 
	C247.329773,398.135925 255.700684,398.091400 264.537964,398.115753 
	C256.577576,398.293671 248.150772,398.402679 239.341431,398.346069 
z"/>
<path fill="#55AC6D" opacity="1.000000" stroke="none" 
	d="
M203.304169,160.946320 
	C206.659576,159.277191 210.428940,157.627518 214.585510,155.942841 
	C212.435242,160.295242 207.942047,160.330933 203.304169,160.946320 
z"/>
<path fill="#55AC6D" opacity="1.000000" stroke="none" 
	d="
M146.209625,261.830444 
	C146.675125,257.772400 147.486267,253.585098 148.637360,249.155182 
	C149.995758,253.521225 150.282913,257.991394 146.209625,261.830444 
z"/>
<path fill="#55AC6D" opacity="1.000000" stroke="none" 
	d="
M150.332123,241.716858 
	C150.520691,237.786530 150.875961,233.516907 151.590240,229.029373 
	C151.465775,233.000168 150.982315,237.188843 150.332123,241.716858 
z"/>
<path fill="#55AC6D" opacity="1.000000" stroke="none" 
	d="
M105.634384,221.270493 
	C105.456573,225.144073 105.098808,229.348343 104.411926,233.789398 
	C104.540024,229.884506 104.997223,225.742844 105.634384,221.270493 
z"/>
<path fill="#55AC6D" opacity="1.000000" stroke="none" 
	d="
M255.353287,150.319244 
	C259.521912,150.552856 264.055664,150.928604 268.824707,151.622162 
	C264.612823,151.447113 260.165588,150.954254 255.353287,150.319244 
z"/>
<path fill="#55AC6D" opacity="1.000000" stroke="none" 
	d="
M140.261566,268.915253 
	C141.695145,266.680054 143.494461,264.402344 145.616806,262.007141 
	C145.669724,265.359070 144.516022,268.156250 140.261566,268.915253 
z"/>
<path fill="#55AC6D" opacity="1.000000" stroke="none" 
	d="
M299.138794,162.230240 
	C301.304901,163.048630 303.579895,164.206009 306.010956,165.691116 
	C303.860565,164.868988 301.554138,163.719101 299.138794,162.230240 
z"/>
<path fill="#55AC6D" opacity="1.000000" stroke="none" 
	d="
M280.098877,154.472748 
	C282.164001,154.920319 284.421021,155.627045 286.873230,156.640015 
	C284.809204,156.208145 282.549957,155.470001 280.098877,154.472748 
z"/>
<path fill="#55AC6D" opacity="1.000000" stroke="none" 
	d="
M165.191101,196.924194 
	C165.381195,195.980331 165.872269,195.015671 166.679611,193.915466 
	C168.757172,195.910400 167.460190,196.568451 165.191101,196.924194 
z"/>
<path fill="#55AC6D" opacity="1.000000" stroke="none" 
	d="
M321.115234,177.234543 
	C322.358765,178.014297 323.630219,179.156555 325.012451,180.603989 
	C323.796539,179.805115 322.469879,178.701080 321.115234,177.234543 
z"/>
<path fill="#55AC6D" opacity="1.000000" stroke="none" 
	d="
M218.279663,154.969193 
	C219.412430,154.291626 220.922958,153.615173 222.809830,153.026215 
	C221.676590,153.732590 220.166992,154.351440 218.279663,154.969193 
z"/>
<path fill="#55AC6D" opacity="1.000000" stroke="none" 
	d="
M317.133240,174.225510 
	C318.305664,174.691895 319.588409,175.486359 320.998230,176.596527 
	C319.831390,176.126022 318.537476,175.339813 317.133240,174.225510 
z"/>
<path fill="#55AC6D" opacity="1.000000" stroke="none" 
	d="
M194.073242,167.068848 
	C194.641617,166.323792 195.473007,165.664429 196.634781,164.952820 
	C196.088867,165.651886 195.212555,166.403214 194.073242,167.068848 
z"/>
<path fill="#55AC6D" opacity="1.000000" stroke="none" 
	d="
M162.470245,200.924896 
	C162.885071,199.749359 163.605377,198.437912 164.637512,197.015244 
	C164.224823,198.199005 163.500275,199.494003 162.470245,200.924896 
z"/>
<path fill="#55AC6D" opacity="1.000000" stroke="none" 
	d="
M149.411682,246.985626 
	C149.214859,246.153076 149.244858,245.151489 149.622284,243.971771 
	C149.859314,244.801285 149.748917,245.808945 149.411682,246.985626 
z"/>
<path fill="#55AC6D" opacity="1.000000" stroke="none" 
	d="
M114.189529,271.196869 
	C115.246994,271.406128 116.486221,271.906738 117.908775,272.696381 
	C116.851830,272.486359 115.611557,271.987305 114.189529,271.196869 
z"/>
<path fill="#55AC6D" opacity="1.000000" stroke="none" 
	d="
M293.215393,159.166046 
	C294.307190,159.376450 295.577515,159.884262 297.010864,160.703339 
	C295.913879,160.497559 294.653870,159.980499 293.215393,159.166046 
z"/>
<path fill="#55AC6D" opacity="1.000000" stroke="none" 
	d="
M289.045654,157.401657 
	C290.168030,157.492828 291.507385,157.857391 292.992462,158.554047 
	C291.846313,158.482452 290.554474,158.078766 289.045654,157.401657 
z"/>
<path fill="#55AC6D" opacity="1.000000" stroke="none" 
	d="
M111.161942,269.206726 
	C111.952621,269.391785 112.900848,269.862915 113.967651,270.647339 
	C113.163994,270.471313 112.241753,269.982025 111.161942,269.206726 
z"/>
<path fill="#55AC6D" opacity="1.000000" stroke="none" 
	d="
M197.239227,164.915558 
	C197.711166,164.301987 198.508362,163.646072 199.634674,162.949905 
	C199.164017,163.564163 198.364243,164.218689 197.239227,164.915558 
z"/>
<path fill="#55AC6D" opacity="1.000000" stroke="none" 
	d="
M200.210449,162.887421 
	C200.683228,162.238647 201.490753,161.579865 202.634949,160.889664 
	C202.162811,161.531296 201.354004,162.204346 200.210449,162.887421 
z"/>
<path fill="#55AC6D" opacity="1.000000" stroke="none" 
	d="
M224.227478,152.981552 
	C225.008804,152.673019 226.148941,152.354889 227.664490,152.110550 
	C226.888687,152.446869 225.737503,152.709412 224.227478,152.981552 
z"/>
<path fill="#55AC6D" opacity="1.000000" stroke="none" 
	d="
M275.336304,153.327576 
	C276.284027,153.227097 277.560516,153.264725 279.009369,153.656235 
	C278.009521,153.828644 276.837311,153.647171 275.336304,153.327576 
z"/>
<path fill="#55AC6D" opacity="1.000000" stroke="none" 
	d="
M188.144409,170.909027 
	C188.357834,170.672836 188.859161,170.344009 189.677414,169.966904 
	C189.473663,170.217896 188.952988,170.517151 188.144409,170.909027 
z"/>
<path fill="#55AC6D" opacity="1.000000" stroke="none" 
	d="
M215.194595,155.902130 
	C215.420807,155.656281 215.928513,155.342484 216.756042,155.095703 
	C216.542618,155.386520 216.009369,155.610336 215.194595,155.902130 
z"/>
<path fill="#55AC6D" opacity="1.000000" stroke="none" 
	d="
M110.152863,268.118164 
	C110.279297,268.120087 110.576965,268.315643 110.976677,268.764709 
	C110.827179,268.782745 110.575638,268.547272 110.152863,268.118164 
z"/>
<path fill="#55AC6D" opacity="1.000000" stroke="none" 
	d="
M109.171631,267.067474 
	C109.309906,267.068542 109.610954,267.275726 109.992676,267.751465 
	C109.827034,267.771240 109.580711,267.522400 109.171631,267.067474 
z"/>
<path fill="#55AC6D" opacity="1.000000" stroke="none" 
	d="
M107.125748,264.115417 
	C107.312622,264.107208 107.617477,264.309509 107.883087,264.797607 
	C107.614120,264.854431 107.414085,264.601959 107.125748,264.115417 
z"/>
<path fill="#55AC6D" opacity="1.000000" stroke="none" 
	d="
M326.165100,182.121658 
	C326.330933,182.089752 326.647614,182.261383 327.023102,182.708740 
	C326.826569,182.764725 326.571259,182.544952 326.165100,182.121658 
z"/>
<path fill="#55AC6D" opacity="1.000000" stroke="none" 
	d="
M106.671448,219.190338 
	C106.704002,219.313095 106.592461,219.610107 106.244316,220.006439 
	C106.169403,219.850601 106.342613,219.603546 106.671448,219.190338 
z"/>
<path fill="#55AC6D" opacity="1.000000" stroke="none" 
	d="
M161.294952,202.883942 
	C161.251465,202.746292 161.360229,202.418655 161.726227,201.987198 
	C161.818604,202.162781 161.639847,202.432968 161.294952,202.883942 
z"/>
<path fill="#55AC6D" opacity="1.000000" stroke="none" 
	d="
M328.141907,184.143646 
	C328.334015,184.136993 328.641541,184.351852 328.906982,184.863892 
	C328.662384,184.895798 328.459808,184.630478 328.141907,184.143646 
z"/>
<path fill="#55AC6D" opacity="1.000000" stroke="none" 
	d="
M327.163635,183.123474 
	C327.333832,183.088303 327.651367,183.259003 328.023987,183.706833 
	C327.823029,183.765762 327.567017,183.547546 327.163635,183.123474 
z"/>
<path fill="#55AC6D" opacity="1.000000" stroke="none" 
	d="
M325.165894,181.121414 
	C325.334534,181.087799 325.652374,181.259277 326.026123,181.708160 
	C325.826385,181.765869 325.570709,181.546188 325.165894,181.121414 
z"/>
<path fill="#55AC6D" opacity="1.000000" stroke="none" 
	d="
M316.175537,173.049469 
	C316.311615,173.054428 316.611176,173.269318 316.996002,173.752808 
	C316.833832,173.767410 316.586456,173.513397 316.175537,173.049469 
z"/>
<path fill="#55AC6D" opacity="1.000000" stroke="none" 
	d="
M314.041534,171.278259 
	C314.209137,171.199402 314.594513,171.292450 315.105835,171.681488 
	C314.907654,171.801697 314.583466,171.625931 314.041534,171.278259 
z"/>
<path fill="#55AC6D" opacity="1.000000" stroke="none" 
	d="
M311.175903,169.124573 
	C311.328430,169.096603 311.654114,169.270401 312.081757,169.713745 
	C311.905487,169.764297 311.627258,169.545319 311.175903,169.124573 
z"/>
<path fill="#55AC6D" opacity="1.000000" stroke="none" 
	d="
M310.037445,168.299530 
	C310.202789,168.228775 310.560699,168.318237 310.999664,168.694534 
	C310.780792,168.834167 310.497223,168.660278 310.037445,168.299530 
z"/>
<path fill="#55AC6D" opacity="1.000000" stroke="none" 
	d="
M308.111511,167.327545 
	C308.247101,167.281998 308.573639,167.389053 309.015137,167.747070 
	C308.843140,167.843124 308.567291,167.670486 308.111511,167.327545 
z"/>
<path fill="#55AC6D" opacity="1.000000" stroke="none" 
	d="
M298.089539,161.329224 
	C298.238586,161.270142 298.572205,161.366394 298.997681,161.728638 
	C298.803711,161.847015 298.531921,161.676971 298.089539,161.329224 
z"/>
<path fill="#55AC6D" opacity="1.000000" stroke="none" 
	d="
M273.124237,152.337921 
	C273.256012,152.292450 273.576355,152.396103 274.014465,152.743561 
	C273.847809,152.839066 273.574677,152.672302 273.124237,152.337921 
z"/>
</svg>