<svg version="1.1" id="Layer_1" xmlns="http://www.w3.org/2000/svg" xmlns:xlink="http://www.w3.org/1999/xlink" x="0px" y="0px"
	 width="100%" viewBox="0 0 4018 4018" enable-background="new 0 0 4018 4018" xml:space="preserve">
<path fill="#42B85F" opacity="1.000000" stroke="none" 
	d="
M3020.000000,4020.000000 
	C2948.613037,4020.000000 2877.225830,4020.000000 2804.299561,4019.496094 
	C2798.474365,4018.661621 2794.188477,4018.041016 2789.902588,4018.040771 
	C2189.030273,4017.997803 1588.157715,4017.998779 987.285278,4018.019287 
	C982.626221,4018.019531 977.967102,4018.311768 972.415405,4018.434570 
	C959.250305,4017.725098 946.978210,4017.042480 934.705261,4016.374023 
	C896.815002,4014.310059 859.344421,4008.761719 822.172058,4001.542236 
	C720.517639,3981.800049 624.100708,3947.161133 533.098755,3897.728760 
	C453.993286,3854.758789 381.848175,3802.088379 316.665894,3740.015137 
	C284.579254,3709.458740 254.670929,3676.829102 226.849762,3642.301514 
	C176.473160,3579.781738 134.229752,3512.164062 100.088097,3439.536621 
	C70.555130,3376.713867 48.050144,3311.397461 32.475746,3243.731689 
	C19.180580,3185.968262 11.068722,3127.419678 8.551030,3068.246582 
	C6.782846,3026.688721 6.657498,2985.047852 6.408803,2943.440674 
	C5.932724,2863.791260 5.890280,2784.139648 5.671468,2704.488770 
	C5.654985,2698.489014 5.796071,2692.485107 5.598512,2686.491699 
	C5.525150,2684.266357 4.688835,2682.065918 4.321704,2678.932617 
	C4.480846,2616.313965 4.554329,2554.616943 4.447804,2492.920166 
	C4.442668,2489.945312 2.852209,2486.973389 2.000000,2484.000000 
	C2.000000,2169.279541 2.000000,1854.559204 2.756927,1538.480469 
	C3.863089,1533.511353 4.513874,1529.900757 4.516835,1526.289795 
	C4.570912,1460.341431 4.547243,1394.392944 4.985487,1327.712402 
	C5.509390,1325.317871 5.650399,1323.656006 5.657336,1321.993530 
	C5.890867,1266.025024 6.010656,1210.055908 6.365870,1154.088257 
	C6.655316,1108.482666 7.726112,1062.876587 7.529541,1017.274841 
	C7.328628,970.665771 9.815500,924.295776 15.608079,878.050659 
	C20.818518,836.453003 28.392448,795.299377 38.720497,754.709351 
	C60.987232,667.199402 94.215317,584.040283 138.984085,505.540680 
	C178.911957,435.529327 226.811188,371.436035 282.427734,313.183624 
	C323.419464,270.249268 368.178864,231.523590 416.253510,196.664017 
	C460.809875,164.355621 507.766083,135.966766 556.997803,111.422173 
	C605.899170,87.042259 656.494263,66.755684 708.700195,50.559551 
	C745.878723,39.025459 783.574280,29.488058 821.800354,22.156422 
	C872.079224,12.513094 922.825439,6.602876 974.877808,3.966601 
	C981.434204,4.019973 987.074036,4.246769 992.680237,3.910835 
	C996.478027,3.683267 1000.228394,2.664757 1004.000000,1.999998 
	C1664.053711,2.000000 2324.107422,2.000000 2985.680176,2.596290 
	C2998.817139,3.428531 3010.435059,3.664483 3022.947021,4.071844 
	C3031.456055,4.706736 3039.066162,5.268822 3046.686035,5.617051 
	C3084.527832,7.346394 3122.052002,11.860788 3159.496582,17.522600 
	C3215.807129,26.037083 3271.103027,38.827763 3325.354980,56.001099 
	C3421.760010,86.518143 3511.974609,129.768845 3595.307129,187.337204 
	C3658.891113,231.262909 3716.166016,282.233337 3767.244873,340.057678 
	C3829.770264,410.839447 3880.290527,489.544891 3919.973633,575.270996 
	C3947.998047,635.811035 3969.751709,698.510315 3986.139648,763.120667 
	C3996.110840,802.432251 4004.150635,842.169250 4009.396484,882.358459 
	C4013.259033,911.949829 4015.224854,941.788391 4018.061279,971.514343 
	C4018.649902,977.681763 4019.350586,983.838440 4020.000000,990.000000 
	C4020.000000,1688.720337 4020.000000,2387.440674 4019.999023,3087.961914 
	C4019.500244,3091.602539 4018.603027,3093.433838 4018.563477,3095.283203 
	C4017.783447,3131.638428 4012.049805,3167.413086 4005.057861,3202.939941 
	C3988.069824,3289.260742 3959.346680,3371.659424 3920.005859,3450.306152 
	C3897.944580,3494.409180 3872.722168,3536.665527 3844.680176,3577.284424 
	C3812.276855,3624.220947 3776.413574,3668.323730 3736.878906,3709.335938 
	C3716.573242,3730.400635 3695.162109,3750.485107 3673.316406,3769.964844 
	C3597.255859,3837.788086 3512.737549,3892.750244 3419.636963,3934.316406 
	C3362.368408,3959.885010 3303.281982,3980.214844 3241.696045,3992.407471 
	C3207.843994,3999.109863 3173.747803,4004.932617 3139.525635,4009.303467 
	C3107.621094,4013.378418 3075.402344,4014.986328 3043.325684,4017.726562 
	C3035.542480,4018.391357 3027.774902,4019.237305 3020.000000,4020.000000 
M2040.117676,815.863647 
	C1973.349854,813.344238 1906.873779,816.667786 1840.781128,826.471863 
	C1751.072388,839.779236 1664.338135,864.007385 1580.638428,898.882996 
	C1434.204224,959.898621 1303.877319,1046.068726 1187.074219,1152.912109 
	C1083.002197,1248.110107 997.897034,1357.852539 935.712646,1484.878540 
	C870.946960,1617.177124 836.898865,1757.339111 827.622803,1904.702271 
	C827.735779,1905.804199 827.848694,1906.906128 827.861633,1909.823608 
	C827.284241,1924.548340 826.706848,1939.272949 825.607300,1955.536743 
	C825.777283,1972.356079 825.947327,1989.175293 826.144897,2007.839966 
	C826.765747,2019.143555 826.745789,2030.525635 828.119812,2041.736938 
	C833.692261,2087.204346 852.622375,2125.915771 888.158508,2155.514648 
	C922.085449,2183.773438 961.836426,2195.954346 1005.584534,2196.320312 
	C1096.292358,2197.079346 1167.767456,2141.698486 1186.807251,2053.735352 
	C1193.974487,2020.623047 1197.139771,1986.637573 1201.954834,1953.024902 
	C1206.463745,1921.550659 1207.730347,1889.741943 1213.355347,1858.320190 
	C1226.781372,1783.319946 1250.165649,1711.728271 1285.084229,1644.124146 
	C1368.831299,1481.984863 1492.756836,1360.127319 1655.929810,1278.676025 
	C1757.186279,1228.131714 1864.702881,1201.202393 1978.932007,1198.509155 
	C1980.622437,1198.322998 1982.312866,1198.136719 1985.871704,1197.866333 
	C1996.579346,1197.905884 2007.287109,1197.945557 2019.055542,1198.498047 
	C2021.373413,1198.367920 2023.691406,1198.237671 2027.813232,1198.137085 
	C2058.654297,1200.915405 2089.698242,1202.294067 2120.299316,1206.728638 
	C2221.450195,1221.386719 2317.085693,1253.345093 2407.050537,1301.892700 
	C2514.487305,1359.868408 2607.006592,1435.704590 2677.909424,1535.598999 
	C2772.640381,1669.065796 2820.474121,1818.895752 2827.539062,1983.094238 
	C2827.726318,1985.394775 2827.913574,1987.695435 2828.127686,1991.870483 
	C2828.124268,2005.246216 2828.120850,2018.622070 2827.606689,2033.055298 
	C2827.724854,2035.372925 2827.842773,2037.690674 2827.867920,2041.805542 
	C2827.288574,2051.871094 2826.708984,2061.936523 2825.631348,2072.699463 
	C2825.739014,2073.801025 2825.846924,2074.902832 2825.800293,2077.689453 
	C2822.400146,2116.226074 2816.629395,2154.380615 2808.214844,2192.164551 
	C2754.089355,2435.199951 2590.435791,2640.520020 2365.166016,2747.966797 
	C2295.276367,2781.302246 2221.952393,2803.784424 2145.989258,2818.106445 
	C2092.727539,2828.148682 2039.215454,2833.787842 1984.968018,2828.220703 
	C1946.144531,2824.236328 1908.958984,2814.444824 1874.154663,2796.621094 
	C1759.824585,2738.072266 1679.486450,2609.927002 1703.840942,2461.934814 
	C1719.231445,2368.412842 1768.193848,2296.735840 1849.379272,2247.551270 
	C1890.453979,2222.667236 1935.570312,2209.316162 1982.777710,2201.987305 
	C2016.333496,2196.777832 2048.144531,2186.209961 2077.036377,2167.921143 
	C2108.080566,2148.269531 2131.175049,2121.835938 2144.695801,2087.447266 
	C2157.292480,2055.408936 2159.993652,2022.227173 2156.311279,1988.211182 
	C2148.827393,1919.078247 2112.975830,1871.493408 2048.306885,1846.053833 
	C2011.986816,1831.766357 1973.898071,1828.201172 1935.293945,1830.681519 
	C1881.143921,1834.161011 1828.412598,1845.136353 1777.268921,1863.321899 
	C1652.799805,1907.580444 1551.628540,1983.820435 1471.920410,2088.496338 
	C1388.911621,2197.506836 1341.625732,2320.671631 1329.509644,2457.276855 
	C1323.697754,2522.802734 1326.607544,2587.921631 1340.841919,2652.105225 
	C1380.964478,2833.020996 1476.827026,2977.697754 1627.744629,3084.943359 
	C1719.040527,3149.820801 1820.759521,3188.357178 1933.178467,3196.569092 
	C1984.098633,3200.288330 2035.033447,3201.147217 2086.756836,3198.293213 
	C2087.825439,3198.117676 2088.893799,3197.942383 2091.709717,3197.817139 
	C2098.019287,3197.334717 2104.326172,3196.811035 2110.639160,3196.376465 
	C2175.909424,3191.882568 2240.369385,3181.996582 2303.832275,3166.167480 
	C2572.177002,3099.235840 2791.697510,2956.786621 2959.847412,2737.260254 
	C3101.551270,2552.260498 3178.598633,2341.872070 3198.432373,2109.295166 
	C3198.322266,2108.195312 3198.212402,2107.095215 3198.173584,2104.234131 
	C3201.965820,2053.530762 3202.935303,2002.792358 3200.466064,1951.051025 
	C3200.270508,1949.369141 3200.074951,1947.687134 3199.837158,1944.221436 
	C3198.583008,1928.150024 3197.328857,1912.078491 3196.483154,1895.253418 
	C3196.274170,1894.171265 3196.065186,1893.088989 3195.759033,1890.304321 
	C3191.292236,1858.329590 3187.734863,1826.196411 3182.201660,1794.407349 
	C3157.872070,1654.634155 3110.518799,1523.018555 3039.475586,1400.190063 
	C2943.011475,1233.411255 2813.722412,1098.347900 2648.038574,999.109009 
	C2564.842773,949.277832 2476.015137,911.605896 2384.307617,880.674255 
	C2275.187744,843.869751 2163.202637,821.496582 2047.101929,815.534302 
	C2045.398315,815.656128 2043.694702,815.777893 2040.117676,815.863647 
z"/>
<path fill="#FFFFFF" opacity="1.000000" stroke="none" 
	d="
M4.200448,2679.854248 
	C4.688835,2682.065918 5.525150,2684.266357 5.598512,2686.491699 
	C5.796071,2692.485107 5.654985,2698.489014 5.671468,2704.488770 
	C5.890280,2784.139648 5.932724,2863.791260 6.408803,2943.440674 
	C6.657498,2985.047852 6.782846,3026.688721 8.551030,3068.246582 
	C11.068722,3127.419678 19.180580,3185.968262 32.475746,3243.731689 
	C48.050144,3311.397461 70.555130,3376.713867 100.088097,3439.536621 
	C134.229752,3512.164062 176.473160,3579.781738 226.849762,3642.301514 
	C254.670929,3676.829102 284.579254,3709.458740 316.665894,3740.015137 
	C381.848175,3802.088379 453.993286,3854.758789 533.098755,3897.728760 
	C624.100708,3947.161133 720.517639,3981.800049 822.172058,4001.542236 
	C859.344421,4008.761719 896.815002,4014.310059 934.705261,4016.374023 
	C946.978210,4017.042480 959.250305,4017.725098 972.478760,4018.867188 
	C973.434692,4019.333008 974.000000,4020.000000 974.000000,4020.000000 
	C650.122620,4020.000000 326.245209,4020.000000 2.000000,4020.000000 
	C2.000000,3573.958252 2.000000,3127.916260 2.552809,2680.941650 
	C3.470560,2679.957520 3.835502,2679.906006 4.200448,2679.854248 
z"/>
<path fill="#FFFFFF" opacity="1.000000" stroke="none" 
	d="
M973.946899,3.900384 
	C922.825439,6.602876 872.079224,12.513094 821.800354,22.156422 
	C783.574280,29.488058 745.878723,39.025459 708.700195,50.559551 
	C656.494263,66.755684 605.899170,87.042259 556.997803,111.422173 
	C507.766083,135.966766 460.809875,164.355621 416.253510,196.664017 
	C368.178864,231.523590 323.419464,270.249268 282.427734,313.183624 
	C226.811188,371.436035 178.911957,435.529327 138.984085,505.540680 
	C94.215317,584.040283 60.987232,667.199402 38.720497,754.709351 
	C28.392448,795.299377 20.818518,836.453003 15.608079,878.050659 
	C9.815500,924.295776 7.328628,970.665771 7.529541,1017.274841 
	C7.726112,1062.876587 6.655316,1108.482666 6.365870,1154.088257 
	C6.010656,1210.055908 5.890867,1266.025024 5.657336,1321.993530 
	C5.650399,1323.656006 5.509390,1325.317871 4.353601,1327.583252 
	C2.850874,1328.124390 2.425437,1328.062134 2.000000,1328.000000 
	C2.000000,886.168213 2.000000,444.336365 2.000000,2.000000 
	C325.374939,2.000000 648.750183,2.000000 973.074707,2.475803 
	C974.024048,2.951607 973.946899,3.900384 973.946899,3.900384 
z"/>
<path fill="#FFFFFF" opacity="1.000000" stroke="none" 
	d="
M4020.000000,989.062683 
	C4019.350586,983.838440 4018.649902,977.681763 4018.061279,971.514343 
	C4015.224854,941.788391 4013.259033,911.949829 4009.396484,882.358459 
	C4004.150635,842.169250 3996.110840,802.432251 3986.139648,763.120667 
	C3969.751709,698.510315 3947.998047,635.811035 3919.973633,575.270996 
	C3880.290527,489.544891 3829.770264,410.839447 3767.244873,340.057678 
	C3716.166016,282.233337 3658.891113,231.262909 3595.307129,187.337204 
	C3511.974609,129.768845 3421.760010,86.518143 3325.354980,56.001099 
	C3271.103027,38.827763 3215.807129,26.037083 3159.496582,17.522600 
	C3122.052002,11.860788 3084.527832,7.346394 3046.686035,5.617051 
	C3039.066162,5.268822 3031.456055,4.706736 3022.908691,3.597432 
	C3021.976318,2.951610 3022.000000,2.000000 3022.000000,2.000000 
	C3354.520020,2.000000 3687.040283,2.000000 4020.000000,2.000000 
	C4020.000000,330.708313 4020.000000,659.416870 4020.000000,989.062683 
z"/>
<path fill="#FFFFFF" opacity="1.000000" stroke="none" 
	d="
M3020.937256,4020.000000 
	C3027.774902,4019.237305 3035.542480,4018.391357 3043.325684,4017.726562 
	C3075.402344,4014.986328 3107.621094,4013.378418 3139.525635,4009.303467 
	C3173.747803,4004.932617 3207.843994,3999.109863 3241.696045,3992.407471 
	C3303.281982,3980.214844 3362.368408,3959.885010 3419.636963,3934.316406 
	C3512.737549,3892.750244 3597.255859,3837.788086 3673.316406,3769.964844 
	C3695.162109,3750.485107 3716.573242,3730.400635 3736.878906,3709.335938 
	C3776.413574,3668.323730 3812.276855,3624.220947 3844.680176,3577.284424 
	C3872.722168,3536.665527 3897.944580,3494.409180 3920.005859,3450.306152 
	C3959.346680,3371.659424 3988.069824,3289.260742 4005.057861,3202.939941 
	C4012.049805,3167.413086 4017.783447,3131.638428 4018.563477,3095.283203 
	C4018.603027,3093.433838 4019.500244,3091.602539 4019.999023,3088.881348 
	C4020.000000,3398.525879 4020.000000,3709.052002 4020.000000,4020.000000 
	C3687.291504,4020.000000 3354.583008,4020.000000 3020.937256,4020.000000 
z"/>
<path fill="#71C987" opacity="1.000000" stroke="none" 
	d="
M974.925293,4020.000000 
	C974.000000,4020.000000 973.434692,4019.333008 973.371338,4018.900391 
	C977.967102,4018.311768 982.626221,4018.019531 987.285278,4018.019287 
	C1588.157715,4017.998779 2189.030273,4017.997803 2789.902588,4018.040771 
	C2794.188477,4018.041016 2798.474365,4018.661621 2803.380127,4019.496094 
	C2194.616943,4020.000000 1585.233765,4020.000000 974.925293,4020.000000 
z"/>
<path fill="#C0E7CA" opacity="1.000000" stroke="none" 
	d="
M2.000000,1328.937256 
	C2.425437,1328.062134 2.850874,1328.124390 3.908197,1328.315552 
	C4.547243,1394.392944 4.570912,1460.341431 4.516835,1526.289795 
	C4.513874,1529.900757 3.863089,1533.511353 2.756927,1537.561035 
	C2.000000,1468.624878 2.000000,1399.249756 2.000000,1328.937256 
z"/>
<path fill="#C0E7CA" opacity="1.000000" stroke="none" 
	d="
M4.321700,2678.932617 
	C3.835502,2679.906006 3.470560,2679.957520 2.552809,2680.004395 
	C2.000000,2615.291504 2.000000,2550.583008 2.000000,2484.937256 
	C2.852209,2486.973389 4.442668,2489.945312 4.447804,2492.920166 
	C4.554329,2554.616943 4.480846,2616.313965 4.321700,2678.932617 
z"/>
<path fill="#C0E7CA" opacity="1.000000" stroke="none" 
	d="
M3021.063965,2.000000 
	C3022.000000,2.000000 3021.976318,2.951610 3022.014648,3.426022 
	C3010.435059,3.664483 2998.817139,3.428531 2986.599609,2.596290 
	C2997.375977,2.000000 3008.752197,2.000000 3021.063965,2.000000 
z"/>
<path fill="#C0E7CA" opacity="1.000000" stroke="none" 
	d="
M974.877808,3.966601 
	C973.946899,3.900384 974.024048,2.951607 974.012024,2.475803 
	C983.378479,2.000000 992.757019,2.000000 1003.067749,1.999998 
	C1000.228394,2.664757 996.478027,3.683267 992.680237,3.910835 
	C987.074036,4.246769 981.434204,4.019973 974.877808,3.966601 
z"/>
<path fill="#FEFEFE" opacity="1.000000" stroke="none" 
	d="
M828.111450,1903.997559 
	C836.898865,1757.339111 870.946960,1617.177124 935.712646,1484.878540 
	C997.897034,1357.852539 1083.002197,1248.110107 1187.074219,1152.912109 
	C1303.877319,1046.068726 1434.204224,959.898621 1580.638428,898.882996 
	C1664.338135,864.007385 1751.072388,839.779236 1840.781128,826.471863 
	C1906.873779,816.667786 1973.349854,813.344238 2041.509766,816.135559 
	C2044.604980,816.289307 2046.307983,816.171204 2048.010986,816.053101 
	C2163.202637,821.496582 2275.187744,843.869751 2384.307617,880.674255 
	C2476.015137,911.605896 2564.842773,949.277832 2648.038574,999.109009 
	C2813.722412,1098.347900 2943.011475,1233.411255 3039.475586,1400.190063 
	C3110.518799,1523.018555 3157.872070,1654.634155 3182.201660,1794.407349 
	C3187.734863,1826.196411 3191.292236,1858.329590 3195.601562,1891.532471 
	C3195.654297,1893.842896 3195.864746,1894.924927 3196.074951,1896.007080 
	C3197.328857,1912.078491 3198.583008,1928.150024 3199.644287,1945.589600 
	C3199.653076,1948.640625 3199.854736,1950.323486 3200.056152,1952.006470 
	C3202.935303,2002.792358 3201.965820,2053.530762 3197.891113,2105.466553 
	C3197.720703,2107.800049 3197.833008,2108.901123 3197.945312,2110.002197 
	C3178.598633,2341.872070 3101.551270,2552.260498 2959.847412,2737.260254 
	C2791.697510,2956.786621 2572.177002,3099.235840 2303.832275,3166.167480 
	C2240.369385,3181.996582 2175.909424,3191.882568 2110.639160,3196.376465 
	C2104.326172,3196.811035 2098.019287,3197.334717 2090.468750,3197.571289 
	C2088.154785,3197.519775 2087.082275,3197.713623 2086.009521,3197.907715 
	C2035.033447,3201.147217 1984.098633,3200.288330 1933.178467,3196.569092 
	C1820.759521,3188.357178 1719.040527,3149.820801 1627.744629,3084.943359 
	C1476.827026,2977.697754 1380.964478,2833.020996 1340.841919,2652.105225 
	C1326.607544,2587.921631 1323.697754,2522.802734 1329.509644,2457.276855 
	C1341.625732,2320.671631 1388.911621,2197.506836 1471.920410,2088.496338 
	C1551.628540,1983.820435 1652.799805,1907.580444 1777.268921,1863.321899 
	C1828.412598,1845.136353 1881.143921,1834.161011 1935.293945,1830.681519 
	C1973.898071,1828.201172 2011.986816,1831.766357 2048.306885,1846.053833 
	C2112.975830,1871.493408 2148.827393,1919.078247 2156.311279,1988.211182 
	C2159.993652,2022.227173 2157.292480,2055.408936 2144.695801,2087.447266 
	C2131.175049,2121.835938 2108.080566,2148.269531 2077.036377,2167.921143 
	C2048.144531,2186.209961 2016.333496,2196.777832 1982.777710,2201.987305 
	C1935.570312,2209.316162 1890.453979,2222.667236 1849.379272,2247.551270 
	C1768.193848,2296.735840 1719.231445,2368.412842 1703.840942,2461.934814 
	C1679.486450,2609.927002 1759.824585,2738.072266 1874.154663,2796.621094 
	C1908.958984,2814.444824 1946.144531,2824.236328 1984.968018,2828.220703 
	C2039.215454,2833.787842 2092.727539,2828.148682 2145.989258,2818.106445 
	C2221.952393,2803.784424 2295.276367,2781.302246 2365.166016,2747.966797 
	C2590.435791,2640.520020 2754.089355,2435.199951 2808.214844,2192.164551 
	C2816.629395,2154.380615 2822.400146,2116.226074 2826.129150,2076.498535 
	C2826.348633,2074.205811 2826.239014,2073.103760 2826.129639,2072.001953 
	C2826.708984,2061.936523 2827.288574,2051.871094 2828.182129,2040.381348 
	C2828.369873,2036.637329 2828.243652,2034.317627 2828.117676,2031.997803 
	C2828.120850,2018.622070 2828.124268,2005.246216 2828.335449,1990.386719 
	C2828.344482,1986.599976 2828.145508,1984.296753 2827.946289,1981.993652 
	C2820.474121,1818.895752 2772.640381,1669.065796 2677.909424,1535.598999 
	C2607.006592,1435.704590 2514.487305,1359.868408 2407.050537,1301.892700 
	C2317.085693,1253.345093 2221.450195,1221.386719 2120.299316,1206.728638 
	C2089.698242,1202.294067 2058.654297,1200.915405 2026.381226,1197.866699 
	C2022.631104,1197.725830 2020.312866,1197.855469 2017.994751,1197.985107 
	C2007.287109,1197.945557 1996.579346,1197.905884 1984.461670,1197.702148 
	C1981.366455,1197.704346 1979.681152,1197.870972 1977.995850,1198.037354 
	C1864.702881,1201.202393 1757.186279,1228.131714 1655.929810,1278.676025 
	C1492.756836,1360.127319 1368.831299,1481.984863 1285.084229,1644.124146 
	C1250.165649,1711.728271 1226.781372,1783.319946 1213.355347,1858.320190 
	C1207.730347,1889.741943 1206.463745,1921.550659 1201.954834,1953.024902 
	C1197.139771,1986.637573 1193.974487,2020.623047 1186.807251,2053.735352 
	C1167.767456,2141.698486 1096.292358,2197.079346 1005.584534,2196.320312 
	C961.836426,2195.954346 922.085449,2183.773438 888.158508,2155.514648 
	C852.622375,2125.915771 833.692261,2087.204346 828.119812,2041.736938 
	C826.745789,2030.525635 826.765747,2019.143555 826.360107,2006.139893 
	C826.426697,1987.625854 826.278076,1970.811768 826.129517,1953.997681 
	C826.706848,1939.272949 827.284241,1924.548340 828.161621,1908.564819 
	C828.344910,1906.203247 828.228210,1905.100342 828.111450,1903.997559 
z"/>
<path fill="#AADDB3" opacity="1.000000" stroke="none" 
	d="
M825.868408,1954.767212 
	C826.278076,1970.811768 826.426697,1987.625854 826.346313,2005.217285 
	C825.947327,1989.175293 825.777283,1972.356079 825.868408,1954.767212 
z"/>
<path fill="#9BD7A5" opacity="1.000000" stroke="none" 
	d="
M2018.525146,1198.241455 
	C2020.312866,1197.855469 2022.631104,1197.725830 2025.479248,1197.851807 
	C2023.691406,1198.237671 2021.373413,1198.367920 2018.525146,1198.241455 
z"/>
<path fill="#AADDB3" opacity="1.000000" stroke="none" 
	d="
M2827.742676,1982.543945 
	C2828.145508,1984.296753 2828.344482,1986.599976 2828.322266,1989.449463 
	C2827.913574,1987.695435 2827.726318,1985.394775 2827.742676,1982.543945 
z"/>
<path fill="#AADDB3" opacity="1.000000" stroke="none" 
	d="
M2827.862305,2032.526611 
	C2828.243652,2034.317627 2828.369873,2036.637329 2828.228516,2039.482666 
	C2827.842773,2037.690674 2827.724854,2035.372925 2827.862305,2032.526611 
z"/>
<path fill="#AADDB3" opacity="1.000000" stroke="none" 
	d="
M3200.261230,1951.528809 
	C3199.854736,1950.323486 3199.653076,1948.640625 3199.665527,1946.481445 
	C3200.074951,1947.687134 3200.270508,1949.369141 3200.261230,1951.528809 
z"/>
<path fill="#9BD7A5" opacity="1.000000" stroke="none" 
	d="
M1978.463867,1198.273315 
	C1979.681152,1197.870972 1981.366455,1197.704346 1983.527588,1197.744141 
	C1982.312866,1198.136719 1980.622437,1198.322998 1978.463867,1198.273315 
z"/>
<path fill="#9BD7A5" opacity="1.000000" stroke="none" 
	d="
M2047.556396,815.793701 
	C2046.307983,816.171204 2044.604980,816.289307 2042.446533,816.153564 
	C2043.694702,815.777893 2045.398315,815.656128 2047.556396,815.793701 
z"/>
<path fill="#AADDB3" opacity="1.000000" stroke="none" 
	d="
M3196.279053,1895.630249 
	C3195.864746,1894.924927 3195.654297,1893.842896 3195.650146,1892.383789 
	C3196.065186,1893.088989 3196.274170,1894.171265 3196.279053,1895.630249 
z"/>
<path fill="#AADDB3" opacity="1.000000" stroke="none" 
	d="
M827.867126,1904.349854 
	C828.228210,1905.100342 828.344910,1906.203247 828.211670,1907.656982 
	C827.848694,1906.906128 827.735779,1905.804199 827.867126,1904.349854 
z"/>
<path fill="#AADDB3" opacity="1.000000" stroke="none" 
	d="
M2825.880371,2072.350586 
	C2826.239014,2073.103760 2826.348633,2074.205811 2826.206543,2075.656006 
	C2825.846924,2074.902832 2825.739014,2073.801025 2825.880371,2072.350586 
z"/>
<path fill="#9BD7A5" opacity="1.000000" stroke="none" 
	d="
M3198.188965,2109.648682 
	C3197.833008,2108.901123 3197.720703,2107.800049 3197.855469,2106.347168 
	C3198.212402,2107.095215 3198.322266,2108.195312 3198.188965,2109.648682 
z"/>
<path fill="#C0E7CA" opacity="1.000000" stroke="none" 
	d="
M2086.383301,3198.100586 
	C2087.082275,3197.713623 2088.154785,3197.519775 2089.594971,3197.546387 
	C2088.893799,3197.942383 2087.825439,3198.117676 2086.383301,3198.100586 
z"/>
</svg>